<svg width="28" height="27" viewBox="0 0 28 27" fill="#66689D" xmlns="http://www.w3.org/2000/svg">
<path d="M25.8966 0.40918H2.82704C1.75322 0.40918 0.882812 1.25453 0.882812 2.29743V24.7027C0.882812 25.7456 1.75322 26.591 2.82704 26.591H15.2832V16.466H11.7818V12.5029H15.2832V9.58636C15.2832 6.20417 17.4093 4.36326 20.5157 4.36326C22.0036 4.36326 23.2823 4.47092 23.6549 4.51906V8.05407H21.5128C19.8226 8.05407 19.4954 8.8341 19.4954 9.97887V12.5029H23.5365L23.0099 16.466H19.4954V26.591H25.8966C26.9704 26.591 27.8408 25.7456 27.8408 24.7027V2.29743C27.8408 1.25453 26.9704 0.40918 25.8966 0.40918V0.40918Z" fill="#66689D"/>
</svg>
