<svg width="29" height="27" viewBox="0 0 29 27" fill="none" xmlns="http://www.w3.org/2000/svg">
<path fill-rule="evenodd" clip-rule="evenodd" d="M20.3976 0.0848085C17.84 -0.0310645 11.505 -0.0254396 8.94501 0.0848085C6.69549 0.187182 4.71124 0.714797 3.11155 2.2684C0.719195 4.59183 0.741263 7.63773 0.772357 11.9293C0.77601 12.4335 0.779788 12.955 0.779788 13.4946C0.779788 13.9995 0.777004 14.4876 0.774311 14.9595C0.748998 19.3953 0.731798 22.4096 3.11155 24.7208C5.50829 27.0474 8.67912 27.0246 13.048 26.993C13.5715 26.9892 14.1122 26.9853 14.6707 26.9853H14.7462C20.0444 26.9854 21.8846 26.9854 23.7696 26.2766C26.3446 25.3057 28.2883 23.0704 28.4783 19.0553C28.5988 16.5703 28.5918 10.4189 28.4783 7.93267C28.249 3.19313 25.6299 0.318804 20.3976 0.0848085ZM14.6695 6.35756C10.6082 6.35756 7.32022 9.55434 7.32022 13.4952C7.32022 17.4396 10.6118 20.6329 14.6695 20.6329C18.7308 20.6329 22.0188 17.4362 22.0188 13.4952C22.0188 9.55086 18.7272 6.35756 14.6695 6.35756ZM14.6695 18.1281C12.0332 18.1281 9.89927 16.0545 9.89927 13.4952C9.89927 10.936 12.0344 8.86236 14.6695 8.86236C17.3046 8.86236 19.4397 10.936 19.4397 13.4952C19.4409 16.0545 17.3058 18.1281 14.6695 18.1281ZM24.8677 5.6672C24.8677 6.58837 24.0988 7.33513 23.1503 7.33513C22.2018 7.33513 21.4329 6.58837 21.4329 5.6672C21.4329 4.74603 22.2018 3.99927 23.1503 3.99927C24.0988 3.99927 24.8677 4.74603 24.8677 5.6672Z" fill="white"/>
</svg>
