<svg width="26" height="19" viewBox="0 0 26 19" fill="red" xmlns="http://www.w3.org/2000/svg">
<path d="M25.8812 16.5557L18.3787 9.54918L25.8812 2.32012V16.5557Z" fill="red" stroke="#12182A" stroke-width="0.2"/>
<path d="M13.9457 13.8251L17.0479 10.8404L24.9299 18.1985C24.7145 18.2997 24.4776 18.3629 24.2296 18.3629H2.37339C2.23101 18.3629 2.09158 18.3374 1.9556 18.2982L9.57536 10.9536L12.6679 13.8354C12.6679 13.8354 12.6679 13.8354 12.6679 13.8354C12.8464 14.0018 13.0741 14.0848 13.3014 14.0848C13.5336 14.0848 13.766 13.9981 13.9457 13.8251L13.8764 13.7531L13.9457 13.8251Z" fill="red" stroke="#12182A" stroke-width="0.2"/>
<path d="M24.2298 0.429102C24.4969 0.429102 24.7505 0.501882 24.9783 0.617742L13.2915 11.8755L1.38093 0.763371C1.66151 0.558286 2.00453 0.429102 2.37367 0.429102H24.2298Z" fill="red" stroke="#12182A" stroke-width="0.2"/>
<path d="M0.649805 16.6382V2.66137L8.19352 9.68454L0.683317 16.9167C0.66328 16.8239 0.649805 16.7316 0.649805 16.6382Z" fill="red" stroke="#12182A" stroke-width="0.2"/>
</svg>
