<svg width="27" height="27" viewBox="0 0 27 27" fill="#66689D" xmlns="http://www.w3.org/2000/svg">
<path fill-rule="evenodd" clip-rule="evenodd" d="M2 0.40918C0.895431 0.40918 0 1.30461 0 2.40918V24.591C0 25.6956 0.895431 26.591 2 26.591H24.958C26.0626 26.591 26.958 25.6956 26.958 24.591V2.40918C26.958 1.30461 26.0626 0.40918 24.958 0.40918H2ZM19.9804 8.11781L16.1316 20.2085C16.0177 20.5663 15.5024 20.5914 15.3389 20.2534C14.6144 18.7562 13.3555 16.6319 11.8965 15.5175C10.4655 14.4245 7.87285 13.518 6.01217 12.993C5.62333 12.8833 5.5996 12.3133 5.98228 12.1838L19.471 7.61759C19.7816 7.51243 20.0799 7.80528 19.9804 8.11781Z" fill="#66689D"/>
</svg>
