<svg width="29" height="23" viewBox="0 0 29 23" fill="none" xmlns="http://www.w3.org/2000/svg">
<path fill-rule="evenodd" clip-rule="evenodd" d="M24.4667 0.940385C26.1755 1.04583 27.0147 1.3231 27.788 2.83054C28.5934 4.33602 28.9997 6.92912 28.9997 11.4963V11.5022V11.512C28.9997 16.0577 28.5934 18.6703 27.7898 20.1602C27.0165 21.6676 26.1773 21.941 24.4685 22.0679C22.7597 22.1753 18.4672 22.2397 14.7485 22.2397C11.0227 22.2397 6.72846 22.1753 5.02146 22.0659C3.31623 21.939 2.47699 21.6657 1.69654 20.1582C0.900058 18.6684 0.490234 16.0557 0.490234 11.51V11.5061V11.5002V11.4944C0.490234 6.92912 0.900058 4.33602 1.69654 2.83054C2.47699 1.32115 3.31802 1.04583 5.02324 0.938432C6.72846 0.813463 11.0227 0.760742 14.7485 0.760742C18.4672 0.760742 22.7597 0.813463 24.4667 0.940385ZM20.8421 11.4747L11.2659 6.10505V16.8443L20.8421 11.4747Z" fill="white"/>
</svg>
